<?xml version="1.0" encoding="UTF-8" standalone="no"?>
<!DOCTYPE svg PUBLIC "-//W3C//DTD SVG 1.1//EN"
 "http://www.w3.org/Graphics/SVG/1.1/DTD/svg11.dtd">
<!-- Generated by graphviz version 13.1.0 (20250701.0955)
 -->
<!-- Title: G Pages: 1 -->
<svg width="308pt" height="476pt"
 viewBox="0.00 0.00 308.00 476.00" xmlns="http://www.w3.org/2000/svg" xmlns:xlink="http://www.w3.org/1999/xlink">
<g id="graph0" class="graph" transform="scale(1 1) rotate(0) translate(4 472)">
<title>G</title>
<polygon fill="white" stroke="none" points="-4,4 -4,-472 304,-472 304,4 -4,4"/>
<!-- 0 -->
<g id="node1" class="node">
<title>0</title>
<ellipse fill="none" stroke="black" cx="154" cy="-450" rx="27" ry="18"/>
<text xml:space="preserve" text-anchor="middle" x="154" y="-444.95" font-family="Times New Roman,serif" font-size="14.00">0</text>
</g>
<!-- 1 -->
<g id="node2" class="node">
<title>1</title>
<ellipse fill="none" stroke="black" cx="182" cy="-378" rx="27" ry="18"/>
<text xml:space="preserve" text-anchor="middle" x="182" y="-372.95" font-family="Times New Roman,serif" font-size="14.00">1</text>
</g>
<!-- 0&#45;&#45;1 -->
<g id="edge1" class="edge">
<title>0&#45;&#45;1</title>
<path fill="none" stroke="black" d="M160.64,-432.41C165.1,-421.25 170.96,-406.6 175.41,-395.47"/>
</g>
<!-- 2 -->
<g id="node3" class="node">
<title>2</title>
<ellipse fill="none" stroke="black" cx="127" cy="-306" rx="27" ry="18"/>
<text xml:space="preserve" text-anchor="middle" x="127" y="-300.95" font-family="Times New Roman,serif" font-size="14.00">2</text>
</g>
<!-- 0&#45;&#45;2 -->
<g id="edge2" class="edge">
<title>0&#45;&#45;2</title>
<path fill="none" stroke="black" d="M150.74,-431.87C145.55,-404.58 135.47,-351.52 130.27,-324.19"/>
</g>
<!-- 3 -->
<g id="node4" class="node">
<title>3</title>
<ellipse fill="none" stroke="black" cx="273" cy="-378" rx="27" ry="18"/>
<text xml:space="preserve" text-anchor="middle" x="273" y="-372.95" font-family="Times New Roman,serif" font-size="14.00">3</text>
</g>
<!-- 0&#45;&#45;3 -->
<g id="edge3" class="edge">
<title>0&#45;&#45;3</title>
<path fill="none" stroke="black" d="M173.92,-437.28C196.02,-424.28 231.45,-403.44 253.41,-390.52"/>
</g>
<!-- 6 -->
<g id="node5" class="node">
<title>6</title>
<ellipse fill="none" stroke="black" cx="55" cy="-378" rx="27" ry="18"/>
<text xml:space="preserve" text-anchor="middle" x="55" y="-372.95" font-family="Times New Roman,serif" font-size="14.00">6</text>
</g>
<!-- 0&#45;&#45;6 -->
<g id="edge4" class="edge">
<title>0&#45;&#45;6</title>
<path fill="none" stroke="black" d="M135.84,-436.16C117.98,-423.53 90.87,-404.36 73.04,-391.76"/>
</g>
<!-- 1&#45;&#45;2 -->
<g id="edge5" class="edge">
<title>1&#45;&#45;2</title>
<path fill="none" stroke="black" d="M169.79,-361.46C160.68,-349.86 148.28,-334.08 139.17,-322.49"/>
</g>
<!-- 4 -->
<g id="node6" class="node">
<title>4</title>
<ellipse fill="none" stroke="black" cx="237" cy="-306" rx="27" ry="18"/>
<text xml:space="preserve" text-anchor="middle" x="237" y="-300.95" font-family="Times New Roman,serif" font-size="14.00">4</text>
</g>
<!-- 1&#45;&#45;4 -->
<g id="edge6" class="edge">
<title>1&#45;&#45;4</title>
<path fill="none" stroke="black" d="M194.21,-361.46C203.32,-349.86 215.72,-334.08 224.83,-322.49"/>
</g>
<!-- 5 -->
<g id="node7" class="node">
<title>5</title>
<ellipse fill="none" stroke="black" cx="190" cy="-234" rx="27" ry="18"/>
<text xml:space="preserve" text-anchor="middle" x="190" y="-228.95" font-family="Times New Roman,serif" font-size="14.00">5</text>
</g>
<!-- 1&#45;&#45;5 -->
<g id="edge7" class="edge">
<title>1&#45;&#45;5</title>
<path fill="none" stroke="black" d="M182.98,-359.59C184.52,-332.19 187.5,-279.32 189.04,-252.11"/>
</g>
<!-- 7 -->
<g id="node8" class="node">
<title>7</title>
<ellipse fill="none" stroke="black" cx="55" cy="-306" rx="27" ry="18"/>
<text xml:space="preserve" text-anchor="middle" x="55" y="-300.95" font-family="Times New Roman,serif" font-size="14.00">7</text>
</g>
<!-- 1&#45;&#45;7 -->
<g id="edge8" class="edge">
<title>1&#45;&#45;7</title>
<path fill="none" stroke="black" d="M161.6,-365.75C137.9,-352.69 99.03,-331.27 75.35,-318.22"/>
</g>
<!-- 2&#45;&#45;5 -->
<g id="edge9" class="edge">
<title>2&#45;&#45;5</title>
<path fill="none" stroke="black" d="M140.36,-290.15C151.05,-278.28 165.97,-261.7 176.66,-249.82"/>
</g>
<!-- 8 -->
<g id="node9" class="node">
<title>8</title>
<ellipse fill="none" stroke="black" cx="118" cy="-234" rx="27" ry="18"/>
<text xml:space="preserve" text-anchor="middle" x="118" y="-228.95" font-family="Times New Roman,serif" font-size="14.00">8</text>
</g>
<!-- 2&#45;&#45;8 -->
<g id="edge10" class="edge">
<title>2&#45;&#45;8</title>
<path fill="none" stroke="black" d="M124.78,-287.7C123.38,-276.85 121.59,-262.92 120.2,-252.1"/>
</g>
<!-- 3&#45;&#45;4 -->
<g id="edge11" class="edge">
<title>3&#45;&#45;4</title>
<path fill="none" stroke="black" d="M264.65,-360.76C258.83,-349.46 251.11,-334.44 245.3,-323.15"/>
</g>
<!-- 3&#45;&#45;5 -->
<g id="edge12" class="edge">
<title>3&#45;&#45;5</title>
<path fill="none" stroke="black" d="M277.57,-360.07C281.67,-341.24 285.33,-310.49 273,-288 260.51,-265.21 233.59,-250.8 213.78,-242.85"/>
</g>
<!-- 9 -->
<g id="node10" class="node">
<title>9</title>
<ellipse fill="none" stroke="black" cx="190" cy="-162" rx="27" ry="18"/>
<text xml:space="preserve" text-anchor="middle" x="190" y="-156.95" font-family="Times New Roman,serif" font-size="14.00">9</text>
</g>
<!-- 3&#45;&#45;9 -->
<g id="edge13" class="edge">
<title>3&#45;&#45;9</title>
<path fill="none" stroke="black" d="M281.49,-360.55C289.69,-342.41 299.67,-312.52 291,-288 274.17,-240.39 230.65,-197.62 206.59,-176.64"/>
</g>
<!-- 6&#45;&#45;7 -->
<g id="edge18" class="edge">
<title>6&#45;&#45;7</title>
<path fill="none" stroke="black" d="M55,-359.7C55,-348.85 55,-334.92 55,-324.1"/>
</g>
<!-- 11 -->
<g id="node12" class="node">
<title>11</title>
<ellipse fill="none" stroke="black" cx="135" cy="-18" rx="27" ry="18"/>
<text xml:space="preserve" text-anchor="middle" x="135" y="-12.95" font-family="Times New Roman,serif" font-size="14.00">11</text>
</g>
<!-- 6&#45;&#45;11 -->
<g id="edge19" class="edge">
<title>6&#45;&#45;11</title>
<path fill="none" stroke="black" d="M42.25,-361.7C34.44,-351.59 24.85,-337.71 19,-324 3.12,-286.8 0,-275.45 0,-235 0,-235 0,-235 0,-161 0,-96.03 75.15,-48.96 113.31,-29.25"/>
</g>
<!-- 4&#45;&#45;5 -->
<g id="edge14" class="edge">
<title>4&#45;&#45;5</title>
<path fill="none" stroke="black" d="M226.33,-289.12C218.64,-277.66 208.3,-262.26 200.62,-250.82"/>
</g>
<!-- 4&#45;&#45;8 -->
<g id="edge15" class="edge">
<title>4&#45;&#45;8</title>
<path fill="none" stroke="black" d="M217.08,-293.28C194.98,-280.28 159.55,-259.44 137.59,-246.52"/>
</g>
<!-- 10 -->
<g id="node11" class="node">
<title>10</title>
<ellipse fill="none" stroke="black" cx="190" cy="-90" rx="27" ry="18"/>
<text xml:space="preserve" text-anchor="middle" x="190" y="-84.95" font-family="Times New Roman,serif" font-size="14.00">10</text>
</g>
<!-- 4&#45;&#45;10 -->
<g id="edge16" class="edge">
<title>4&#45;&#45;10</title>
<path fill="none" stroke="black" d="M238.68,-287.97C241.04,-257.95 243.28,-194.05 226,-144 221.14,-129.91 211.5,-116.05 203.42,-106.04"/>
</g>
<!-- 5&#45;&#45;11 -->
<g id="edge17" class="edge">
<title>5&#45;&#45;11</title>
<path fill="none" stroke="black" d="M176.81,-217.88C168.83,-207.83 159.21,-193.97 154,-180 135.41,-130.16 133.91,-66.16 134.4,-36.07"/>
</g>
<!-- 7&#45;&#45;8 -->
<g id="edge20" class="edge">
<title>7&#45;&#45;8</title>
<path fill="none" stroke="black" d="M68.36,-290.15C79.05,-278.28 93.97,-261.7 104.66,-249.82"/>
</g>
<!-- 8&#45;&#45;9 -->
<g id="edge21" class="edge">
<title>8&#45;&#45;9</title>
<path fill="none" stroke="black" d="M132.92,-218.5C145.28,-206.48 162.75,-189.49 175.1,-177.49"/>
</g>
<!-- 9&#45;&#45;10 -->
<g id="edge22" class="edge">
<title>9&#45;&#45;10</title>
<path fill="none" stroke="black" d="M190,-143.7C190,-132.85 190,-118.92 190,-108.1"/>
</g>
<!-- 10&#45;&#45;11 -->
<g id="edge23" class="edge">
<title>10&#45;&#45;11</title>
<path fill="none" stroke="black" d="M177.79,-73.46C168.68,-61.86 156.28,-46.08 147.17,-34.49"/>
</g>
</g>
</svg>
